<mxfile host="app.diagrams.net" modified="2021-04-08T07:25:51.727Z" agent="5.0 (Windows NT 10.0; Win64; x64) AppleWebKit/537.36 (KHTML, like Gecko) Chrome/89.0.4389.114 Safari/537.36" etag="5wZUBUn2PmIv9KXvF1_z" version="14.5.8" type="github">
  <diagram id="C5RBs43oDa-KdzZeNtuy" name="Page-1">
    <mxGraphModel dx="1422" dy="762" grid="1" gridSize="10" guides="1" tooltips="1" connect="1" arrows="1" fold="1" page="1" pageScale="1" pageWidth="827" pageHeight="1169" math="0" shadow="0">
      <root>
        <mxCell id="WIyWlLk6GJQsqaUBKTNV-0" />
        <mxCell id="WIyWlLk6GJQsqaUBKTNV-1" parent="WIyWlLk6GJQsqaUBKTNV-0" />
        <mxCell id="lxTzyP9Jyycn0VTd-L1F-77" value="" style="edgeStyle=orthogonalEdgeStyle;rounded=0;orthogonalLoop=1;jettySize=auto;html=1;entryX=0.5;entryY=0;entryDx=0;entryDy=0;" parent="WIyWlLk6GJQsqaUBKTNV-1" source="WIyWlLk6GJQsqaUBKTNV-3" edge="1" target="Eu_mf2mGly2LNpTWScYB-71">
          <mxGeometry relative="1" as="geometry">
            <mxPoint x="220" y="180" as="targetPoint" />
          </mxGeometry>
        </mxCell>
        <mxCell id="Eu_mf2mGly2LNpTWScYB-67" style="edgeStyle=orthogonalEdgeStyle;rounded=0;orthogonalLoop=1;jettySize=auto;html=1;entryX=0.5;entryY=0;entryDx=0;entryDy=0;" edge="1" parent="WIyWlLk6GJQsqaUBKTNV-1" source="WIyWlLk6GJQsqaUBKTNV-3" target="Eu_mf2mGly2LNpTWScYB-70">
          <mxGeometry relative="1" as="geometry">
            <Array as="points">
              <mxPoint x="600" y="100" />
            </Array>
          </mxGeometry>
        </mxCell>
        <mxCell id="WIyWlLk6GJQsqaUBKTNV-3" value="온라인신고(설치신고)" style="rounded=1;whiteSpace=wrap;html=1;fontSize=12;glass=0;strokeWidth=1;shadow=0;" parent="WIyWlLk6GJQsqaUBKTNV-1" vertex="1">
          <mxGeometry x="360" y="80" width="120" height="40" as="geometry" />
        </mxCell>
        <mxCell id="Ld-m0rTdNNkQz6go5yyE-4" value="" style="edgeStyle=orthogonalEdgeStyle;rounded=0;orthogonalLoop=1;jettySize=auto;html=1;" parent="WIyWlLk6GJQsqaUBKTNV-1" edge="1">
          <mxGeometry relative="1" as="geometry">
            <mxPoint x="270" y="330" as="sourcePoint" />
            <mxPoint x="360" y="330" as="targetPoint" />
          </mxGeometry>
        </mxCell>
        <mxCell id="Ld-m0rTdNNkQz6go5yyE-38" value="" style="edgeStyle=orthogonalEdgeStyle;rounded=0;orthogonalLoop=1;jettySize=auto;html=1;" parent="WIyWlLk6GJQsqaUBKTNV-1" target="Ld-m0rTdNNkQz6go5yyE-37" edge="1">
          <mxGeometry relative="1" as="geometry">
            <mxPoint x="220" y="370" as="sourcePoint" />
          </mxGeometry>
        </mxCell>
        <mxCell id="WIyWlLk6GJQsqaUBKTNV-6" value="검사이력 유무를 선택한다" style="rhombus;whiteSpace=wrap;html=1;shadow=0;fontFamily=Helvetica;fontSize=12;align=center;strokeWidth=1;spacing=6;spacingTop=-4;" parent="WIyWlLk6GJQsqaUBKTNV-1" vertex="1">
          <mxGeometry x="170" y="290" width="100" height="80" as="geometry" />
        </mxCell>
        <mxCell id="Ld-m0rTdNNkQz6go5yyE-19" style="edgeStyle=orthogonalEdgeStyle;rounded=0;orthogonalLoop=1;jettySize=auto;html=1;entryX=1;entryY=0.5;entryDx=0;entryDy=0;" parent="WIyWlLk6GJQsqaUBKTNV-1" target="Ld-m0rTdNNkQz6go5yyE-39" edge="1">
          <mxGeometry relative="1" as="geometry">
            <mxPoint x="290" y="560" as="targetPoint" />
            <Array as="points">
              <mxPoint x="420" y="360" />
              <mxPoint x="420" y="530" />
            </Array>
            <mxPoint x="430" y="360" as="sourcePoint" />
          </mxGeometry>
        </mxCell>
        <mxCell id="Ld-m0rTdNNkQz6go5yyE-5" value="No" style="text;html=1;align=center;verticalAlign=middle;resizable=0;points=[];autosize=1;" parent="WIyWlLk6GJQsqaUBKTNV-1" vertex="1">
          <mxGeometry x="290" y="330" width="30" height="20" as="geometry" />
        </mxCell>
        <mxCell id="lxTzyP9Jyycn0VTd-L1F-40" value="" style="edgeStyle=orthogonalEdgeStyle;rounded=0;orthogonalLoop=1;jettySize=auto;html=1;" parent="WIyWlLk6GJQsqaUBKTNV-1" source="Ld-m0rTdNNkQz6go5yyE-28" target="lxTzyP9Jyycn0VTd-L1F-34" edge="1">
          <mxGeometry relative="1" as="geometry" />
        </mxCell>
        <mxCell id="Eu_mf2mGly2LNpTWScYB-81" style="edgeStyle=orthogonalEdgeStyle;rounded=0;orthogonalLoop=1;jettySize=auto;html=1;exitX=1;exitY=0.5;exitDx=0;exitDy=0;entryX=0;entryY=0.5;entryDx=0;entryDy=0;" edge="1" parent="WIyWlLk6GJQsqaUBKTNV-1" source="Ld-m0rTdNNkQz6go5yyE-28" target="Eu_mf2mGly2LNpTWScYB-83">
          <mxGeometry relative="1" as="geometry">
            <mxPoint x="710" y="435" as="targetPoint" />
          </mxGeometry>
        </mxCell>
        <mxCell id="Ld-m0rTdNNkQz6go5yyE-28" value="신고내역을 &lt;br&gt;승인한다" style="rhombus;whiteSpace=wrap;html=1;" parent="WIyWlLk6GJQsqaUBKTNV-1" vertex="1">
          <mxGeometry x="550" y="390" width="100" height="90" as="geometry" />
        </mxCell>
        <mxCell id="Ld-m0rTdNNkQz6go5yyE-40" value="" style="edgeStyle=orthogonalEdgeStyle;rounded=0;orthogonalLoop=1;jettySize=auto;html=1;" parent="WIyWlLk6GJQsqaUBKTNV-1" source="Ld-m0rTdNNkQz6go5yyE-37" target="Ld-m0rTdNNkQz6go5yyE-39" edge="1">
          <mxGeometry relative="1" as="geometry" />
        </mxCell>
        <mxCell id="Ld-m0rTdNNkQz6go5yyE-37" value="검사이력을 선택한다" style="whiteSpace=wrap;html=1;shadow=0;strokeWidth=1;spacing=6;spacingTop=-4;" parent="WIyWlLk6GJQsqaUBKTNV-1" vertex="1">
          <mxGeometry x="160" y="410" width="120" height="60" as="geometry" />
        </mxCell>
        <mxCell id="Ld-m0rTdNNkQz6go5yyE-45" value="" style="edgeStyle=orthogonalEdgeStyle;rounded=0;orthogonalLoop=1;jettySize=auto;html=1;" parent="WIyWlLk6GJQsqaUBKTNV-1" source="Ld-m0rTdNNkQz6go5yyE-39" edge="1">
          <mxGeometry relative="1" as="geometry">
            <mxPoint x="220" y="590" as="targetPoint" />
          </mxGeometry>
        </mxCell>
        <mxCell id="Ld-m0rTdNNkQz6go5yyE-39" value="&lt;span&gt;설치/제조 신고를 등록한다&lt;/span&gt;" style="whiteSpace=wrap;html=1;shadow=0;strokeWidth=1;spacing=6;spacingTop=-4;" parent="WIyWlLk6GJQsqaUBKTNV-1" vertex="1">
          <mxGeometry x="160" y="500" width="120" height="60" as="geometry" />
        </mxCell>
        <mxCell id="Ld-m0rTdNNkQz6go5yyE-41" value="Yes" style="text;html=1;align=center;verticalAlign=middle;resizable=0;points=[];autosize=1;" parent="WIyWlLk6GJQsqaUBKTNV-1" vertex="1">
          <mxGeometry x="220" y="370" width="40" height="20" as="geometry" />
        </mxCell>
        <mxCell id="Ld-m0rTdNNkQz6go5yyE-42" value="Yes" style="text;html=1;align=center;verticalAlign=middle;resizable=0;points=[];autosize=1;" parent="WIyWlLk6GJQsqaUBKTNV-1" vertex="1">
          <mxGeometry x="600" y="490" width="40" height="20" as="geometry" />
        </mxCell>
        <mxCell id="Ld-m0rTdNNkQz6go5yyE-43" value="설치신고가 완료된다" style="rounded=1;whiteSpace=wrap;html=1;" parent="WIyWlLk6GJQsqaUBKTNV-1" vertex="1">
          <mxGeometry x="540" y="650" width="120" height="60" as="geometry" />
        </mxCell>
        <mxCell id="lxTzyP9Jyycn0VTd-L1F-11" value="" style="rounded=0;html=1;jettySize=auto;orthogonalLoop=1;fontSize=11;endArrow=block;endFill=0;endSize=8;strokeWidth=1;shadow=0;labelBackgroundColor=none;edgeStyle=orthogonalEdgeStyle;" parent="WIyWlLk6GJQsqaUBKTNV-1" source="lxTzyP9Jyycn0VTd-L1F-12" target="lxTzyP9Jyycn0VTd-L1F-33" edge="1">
          <mxGeometry relative="1" as="geometry">
            <mxPoint x="220" y="1200" as="targetPoint" />
          </mxGeometry>
        </mxCell>
        <mxCell id="lxTzyP9Jyycn0VTd-L1F-12" value="철거신고 메뉴로 이동한다" style="rounded=1;whiteSpace=wrap;html=1;fontSize=12;glass=0;strokeWidth=1;shadow=0;" parent="WIyWlLk6GJQsqaUBKTNV-1" vertex="1">
          <mxGeometry x="160" y="1110" width="120" height="60" as="geometry" />
        </mxCell>
        <mxCell id="lxTzyP9Jyycn0VTd-L1F-14" value="" style="edgeStyle=orthogonalEdgeStyle;rounded=0;orthogonalLoop=1;jettySize=auto;html=1;" parent="WIyWlLk6GJQsqaUBKTNV-1" edge="1">
          <mxGeometry relative="1" as="geometry">
            <mxPoint x="220" y="1260" as="sourcePoint" />
            <mxPoint x="220" y="1300" as="targetPoint" />
          </mxGeometry>
        </mxCell>
        <mxCell id="lxTzyP9Jyycn0VTd-L1F-84" value="" style="edgeStyle=orthogonalEdgeStyle;rounded=0;orthogonalLoop=1;jettySize=auto;html=1;" parent="WIyWlLk6GJQsqaUBKTNV-1" edge="1">
          <mxGeometry relative="1" as="geometry">
            <mxPoint x="220" y="1360" as="sourcePoint" />
            <mxPoint x="220" y="1401" as="targetPoint" />
          </mxGeometry>
        </mxCell>
        <mxCell id="lxTzyP9Jyycn0VTd-L1F-21" value="" style="edgeStyle=orthogonalEdgeStyle;rounded=0;orthogonalLoop=1;jettySize=auto;html=1;entryX=0.5;entryY=0;entryDx=0;entryDy=0;" parent="WIyWlLk6GJQsqaUBKTNV-1" source="lxTzyP9Jyycn0VTd-L1F-23" target="lxTzyP9Jyycn0VTd-L1F-36" edge="1">
          <mxGeometry relative="1" as="geometry">
            <mxPoint x="220" y="2130" as="targetPoint" />
          </mxGeometry>
        </mxCell>
        <mxCell id="lxTzyP9Jyycn0VTd-L1F-22" value="" style="edgeStyle=orthogonalEdgeStyle;rounded=0;orthogonalLoop=1;jettySize=auto;html=1;" parent="WIyWlLk6GJQsqaUBKTNV-1" source="lxTzyP9Jyycn0VTd-L1F-23" edge="1">
          <mxGeometry relative="1" as="geometry">
            <mxPoint x="370" y="1755" as="targetPoint" />
          </mxGeometry>
        </mxCell>
        <mxCell id="lxTzyP9Jyycn0VTd-L1F-23" value="신고내역을 &lt;br&gt;승인한다" style="rhombus;whiteSpace=wrap;html=1;" parent="WIyWlLk6GJQsqaUBKTNV-1" vertex="1">
          <mxGeometry x="170" y="1710" width="100" height="90" as="geometry" />
        </mxCell>
        <mxCell id="lxTzyP9Jyycn0VTd-L1F-24" value="No" style="text;html=1;align=center;verticalAlign=middle;resizable=0;points=[];autosize=1;" parent="WIyWlLk6GJQsqaUBKTNV-1" vertex="1">
          <mxGeometry x="300" y="1730" width="30" height="20" as="geometry" />
        </mxCell>
        <mxCell id="lxTzyP9Jyycn0VTd-L1F-31" value="Yes" style="text;html=1;align=center;verticalAlign=middle;resizable=0;points=[];autosize=1;" parent="WIyWlLk6GJQsqaUBKTNV-1" vertex="1">
          <mxGeometry x="220" y="1810" width="40" height="20" as="geometry" />
        </mxCell>
        <mxCell id="lxTzyP9Jyycn0VTd-L1F-32" value="철거신고가 완료된다" style="rounded=1;whiteSpace=wrap;html=1;" parent="WIyWlLk6GJQsqaUBKTNV-1" vertex="1">
          <mxGeometry x="160" y="1960" width="120" height="60" as="geometry" />
        </mxCell>
        <mxCell id="lxTzyP9Jyycn0VTd-L1F-33" value="철거신고 목록을 조회한다" style="rounded=0;whiteSpace=wrap;html=1;" parent="WIyWlLk6GJQsqaUBKTNV-1" vertex="1">
          <mxGeometry x="160" y="1200" width="120" height="60" as="geometry" />
        </mxCell>
        <mxCell id="lxTzyP9Jyycn0VTd-L1F-82" value="" style="edgeStyle=orthogonalEdgeStyle;rounded=0;orthogonalLoop=1;jettySize=auto;html=1;" parent="WIyWlLk6GJQsqaUBKTNV-1" source="lxTzyP9Jyycn0VTd-L1F-34" target="Ld-m0rTdNNkQz6go5yyE-43" edge="1">
          <mxGeometry relative="1" as="geometry" />
        </mxCell>
        <mxCell id="lxTzyP9Jyycn0VTd-L1F-34" value="장비대장에 출력되는지 확인한다" style="shape=document;whiteSpace=wrap;html=1;boundedLbl=1;" parent="WIyWlLk6GJQsqaUBKTNV-1" vertex="1">
          <mxGeometry x="540" y="530" width="120" height="80" as="geometry" />
        </mxCell>
        <mxCell id="lxTzyP9Jyycn0VTd-L1F-38" value="" style="edgeStyle=orthogonalEdgeStyle;rounded=0;orthogonalLoop=1;jettySize=auto;html=1;" parent="WIyWlLk6GJQsqaUBKTNV-1" source="lxTzyP9Jyycn0VTd-L1F-36" target="lxTzyP9Jyycn0VTd-L1F-32" edge="1">
          <mxGeometry relative="1" as="geometry" />
        </mxCell>
        <mxCell id="lxTzyP9Jyycn0VTd-L1F-36" value="장비대장에 출력되는지 확인한다" style="shape=document;whiteSpace=wrap;html=1;boundedLbl=1;" parent="WIyWlLk6GJQsqaUBKTNV-1" vertex="1">
          <mxGeometry x="160" y="1840" width="120" height="80" as="geometry" />
        </mxCell>
        <mxCell id="lxTzyP9Jyycn0VTd-L1F-42" value="" style="rounded=0;html=1;jettySize=auto;orthogonalLoop=1;fontSize=11;endArrow=block;endFill=0;endSize=8;strokeWidth=1;shadow=0;labelBackgroundColor=none;edgeStyle=orthogonalEdgeStyle;" parent="WIyWlLk6GJQsqaUBKTNV-1" source="lxTzyP9Jyycn0VTd-L1F-43" edge="1">
          <mxGeometry relative="1" as="geometry">
            <mxPoint x="220.5" y="2210" as="targetPoint" />
          </mxGeometry>
        </mxCell>
        <mxCell id="lxTzyP9Jyycn0VTd-L1F-43" value="설치변경신고 메뉴로 이동한다" style="rounded=1;whiteSpace=wrap;html=1;fontSize=12;glass=0;strokeWidth=1;shadow=0;" parent="WIyWlLk6GJQsqaUBKTNV-1" vertex="1">
          <mxGeometry x="160.5" y="2100" width="120" height="60" as="geometry" />
        </mxCell>
        <mxCell id="lxTzyP9Jyycn0VTd-L1F-44" value="" style="edgeStyle=orthogonalEdgeStyle;rounded=0;orthogonalLoop=1;jettySize=auto;html=1;" parent="WIyWlLk6GJQsqaUBKTNV-1" edge="1">
          <mxGeometry relative="1" as="geometry">
            <mxPoint x="220.5" y="2270" as="sourcePoint" />
            <mxPoint x="220.5" y="2310" as="targetPoint" />
          </mxGeometry>
        </mxCell>
        <mxCell id="lxTzyP9Jyycn0VTd-L1F-45" value="" style="edgeStyle=orthogonalEdgeStyle;rounded=0;orthogonalLoop=1;jettySize=auto;html=1;entryX=0.5;entryY=0;entryDx=0;entryDy=0;" parent="WIyWlLk6GJQsqaUBKTNV-1" target="lxTzyP9Jyycn0VTd-L1F-49" edge="1">
          <mxGeometry relative="1" as="geometry">
            <mxPoint x="220" y="2996" as="targetPoint" />
            <mxPoint x="220" y="2690" as="sourcePoint" />
          </mxGeometry>
        </mxCell>
        <mxCell id="lxTzyP9Jyycn0VTd-L1F-47" value="" style="edgeStyle=orthogonalEdgeStyle;rounded=0;orthogonalLoop=1;jettySize=auto;html=1;entryX=0.5;entryY=0;entryDx=0;entryDy=0;" parent="WIyWlLk6GJQsqaUBKTNV-1" source="lxTzyP9Jyycn0VTd-L1F-49" target="lxTzyP9Jyycn0VTd-L1F-54" edge="1">
          <mxGeometry relative="1" as="geometry">
            <mxPoint x="220" y="2900" as="targetPoint" />
          </mxGeometry>
        </mxCell>
        <mxCell id="lxTzyP9Jyycn0VTd-L1F-48" value="" style="edgeStyle=orthogonalEdgeStyle;rounded=0;orthogonalLoop=1;jettySize=auto;html=1;entryX=0;entryY=0.5;entryDx=0;entryDy=0;" parent="WIyWlLk6GJQsqaUBKTNV-1" source="lxTzyP9Jyycn0VTd-L1F-49" target="wN_w3vvfWrjO0FIOCe-q-7" edge="1">
          <mxGeometry relative="1" as="geometry">
            <mxPoint x="370" y="2775" as="targetPoint" />
          </mxGeometry>
        </mxCell>
        <mxCell id="lxTzyP9Jyycn0VTd-L1F-49" value="신고내역을 &lt;br&gt;승인한다" style="rhombus;whiteSpace=wrap;html=1;" parent="WIyWlLk6GJQsqaUBKTNV-1" vertex="1">
          <mxGeometry x="170" y="2730" width="100" height="90" as="geometry" />
        </mxCell>
        <mxCell id="lxTzyP9Jyycn0VTd-L1F-50" value="No" style="text;html=1;align=center;verticalAlign=middle;resizable=0;points=[];autosize=1;" parent="WIyWlLk6GJQsqaUBKTNV-1" vertex="1">
          <mxGeometry x="300" y="2750" width="30" height="20" as="geometry" />
        </mxCell>
        <mxCell id="lxTzyP9Jyycn0VTd-L1F-53" value="Yes" style="text;html=1;align=center;verticalAlign=middle;resizable=0;points=[];autosize=1;" parent="WIyWlLk6GJQsqaUBKTNV-1" vertex="1">
          <mxGeometry x="220" y="2830" width="40" height="20" as="geometry" />
        </mxCell>
        <mxCell id="lxTzyP9Jyycn0VTd-L1F-54" value="설치변경신고가&lt;br&gt;&amp;nbsp;완료된다" style="rounded=1;whiteSpace=wrap;html=1;" parent="WIyWlLk6GJQsqaUBKTNV-1" vertex="1">
          <mxGeometry x="160" y="2860" width="120" height="60" as="geometry" />
        </mxCell>
        <mxCell id="lxTzyP9Jyycn0VTd-L1F-59" value="&lt;font style=&quot;font-size: 23px&quot;&gt;설치신고&lt;/font&gt;" style="text;html=1;align=center;verticalAlign=middle;resizable=0;points=[];autosize=1;strokeColor=none;" parent="WIyWlLk6GJQsqaUBKTNV-1" vertex="1">
          <mxGeometry x="160" y="40" width="110" height="20" as="geometry" />
        </mxCell>
        <mxCell id="lxTzyP9Jyycn0VTd-L1F-60" value="&lt;font style=&quot;font-size: 23px&quot;&gt;설치변경신고&lt;/font&gt;" style="text;html=1;align=center;verticalAlign=middle;resizable=0;points=[];autosize=1;strokeColor=none;" parent="WIyWlLk6GJQsqaUBKTNV-1" vertex="1">
          <mxGeometry x="160.5" y="2060" width="150" height="20" as="geometry" />
        </mxCell>
        <mxCell id="lxTzyP9Jyycn0VTd-L1F-61" value="&lt;font style=&quot;font-size: 23px&quot;&gt;철거신고&lt;/font&gt;" style="text;html=1;align=center;verticalAlign=middle;resizable=0;points=[];autosize=1;strokeColor=none;" parent="WIyWlLk6GJQsqaUBKTNV-1" vertex="1">
          <mxGeometry x="160" y="1070" width="110" height="20" as="geometry" />
        </mxCell>
        <mxCell id="lxTzyP9Jyycn0VTd-L1F-62" value="" style="rounded=0;html=1;jettySize=auto;orthogonalLoop=1;fontSize=11;endArrow=block;endFill=0;endSize=8;strokeWidth=1;shadow=0;labelBackgroundColor=none;edgeStyle=orthogonalEdgeStyle;" parent="WIyWlLk6GJQsqaUBKTNV-1" source="lxTzyP9Jyycn0VTd-L1F-63" target="lxTzyP9Jyycn0VTd-L1F-74" edge="1">
          <mxGeometry relative="1" as="geometry">
            <mxPoint x="220" y="3120" as="targetPoint" />
          </mxGeometry>
        </mxCell>
        <mxCell id="lxTzyP9Jyycn0VTd-L1F-63" value="수시/정기검사 메뉴로 이동한다" style="rounded=1;whiteSpace=wrap;html=1;fontSize=12;glass=0;strokeWidth=1;shadow=0;" parent="WIyWlLk6GJQsqaUBKTNV-1" vertex="1">
          <mxGeometry x="160" y="3030" width="120" height="60" as="geometry" />
        </mxCell>
        <mxCell id="lxTzyP9Jyycn0VTd-L1F-64" value="" style="edgeStyle=orthogonalEdgeStyle;rounded=0;orthogonalLoop=1;jettySize=auto;html=1;" parent="WIyWlLk6GJQsqaUBKTNV-1" edge="1">
          <mxGeometry relative="1" as="geometry">
            <mxPoint x="220" y="3190" as="sourcePoint" />
            <mxPoint x="220" y="3230" as="targetPoint" />
          </mxGeometry>
        </mxCell>
        <mxCell id="lxTzyP9Jyycn0VTd-L1F-65" value="" style="edgeStyle=orthogonalEdgeStyle;rounded=0;orthogonalLoop=1;jettySize=auto;html=1;entryX=0.5;entryY=0;entryDx=0;entryDy=0;" parent="WIyWlLk6GJQsqaUBKTNV-1" target="lxTzyP9Jyycn0VTd-L1F-69" edge="1">
          <mxGeometry relative="1" as="geometry">
            <mxPoint x="215.5" y="4015" as="targetPoint" />
            <mxPoint x="215.5" y="3700" as="sourcePoint" />
            <Array as="points">
              <mxPoint x="220.5" y="3700" />
            </Array>
          </mxGeometry>
        </mxCell>
        <mxCell id="lxTzyP9Jyycn0VTd-L1F-67" value="" style="edgeStyle=orthogonalEdgeStyle;rounded=0;orthogonalLoop=1;jettySize=auto;html=1;" parent="WIyWlLk6GJQsqaUBKTNV-1" source="lxTzyP9Jyycn0VTd-L1F-69" edge="1">
          <mxGeometry relative="1" as="geometry">
            <mxPoint x="220.5" y="3870" as="targetPoint" />
          </mxGeometry>
        </mxCell>
        <mxCell id="lxTzyP9Jyycn0VTd-L1F-68" value="" style="edgeStyle=orthogonalEdgeStyle;rounded=0;orthogonalLoop=1;jettySize=auto;html=1;entryX=0;entryY=0.5;entryDx=0;entryDy=0;" parent="WIyWlLk6GJQsqaUBKTNV-1" source="lxTzyP9Jyycn0VTd-L1F-69" target="wN_w3vvfWrjO0FIOCe-q-33" edge="1">
          <mxGeometry relative="1" as="geometry">
            <mxPoint x="345.5" y="3785" as="targetPoint" />
          </mxGeometry>
        </mxCell>
        <mxCell id="lxTzyP9Jyycn0VTd-L1F-69" value="검사신청 내역을 &lt;br&gt;승인한다" style="rhombus;whiteSpace=wrap;html=1;" parent="WIyWlLk6GJQsqaUBKTNV-1" vertex="1">
          <mxGeometry x="170.5" y="3740" width="100" height="90" as="geometry" />
        </mxCell>
        <mxCell id="lxTzyP9Jyycn0VTd-L1F-70" value="No" style="text;html=1;align=center;verticalAlign=middle;resizable=0;points=[];autosize=1;" parent="WIyWlLk6GJQsqaUBKTNV-1" vertex="1">
          <mxGeometry x="300.5" y="3790" width="30" height="20" as="geometry" />
        </mxCell>
        <mxCell id="lxTzyP9Jyycn0VTd-L1F-72" value="Yes" style="text;html=1;align=center;verticalAlign=middle;resizable=0;points=[];autosize=1;" parent="WIyWlLk6GJQsqaUBKTNV-1" vertex="1">
          <mxGeometry x="220.5" y="3840" width="40" height="20" as="geometry" />
        </mxCell>
        <mxCell id="lxTzyP9Jyycn0VTd-L1F-73" value="검사신청이&lt;br&gt;&amp;nbsp;완료된다" style="rounded=1;whiteSpace=wrap;html=1;" parent="WIyWlLk6GJQsqaUBKTNV-1" vertex="1">
          <mxGeometry x="160.5" y="3870" width="120" height="60" as="geometry" />
        </mxCell>
        <mxCell id="lxTzyP9Jyycn0VTd-L1F-74" value="수시/정기검사 목록을 조회한다" style="rounded=0;whiteSpace=wrap;html=1;" parent="WIyWlLk6GJQsqaUBKTNV-1" vertex="1">
          <mxGeometry x="160" y="3130" width="120" height="60" as="geometry" />
        </mxCell>
        <mxCell id="lxTzyP9Jyycn0VTd-L1F-75" value="&lt;font style=&quot;font-size: 23px&quot;&gt;수시/정기검사&lt;/font&gt;" style="text;html=1;align=center;verticalAlign=middle;resizable=0;points=[];autosize=1;strokeColor=none;" parent="WIyWlLk6GJQsqaUBKTNV-1" vertex="1">
          <mxGeometry x="155" y="2990" width="160" height="20" as="geometry" />
        </mxCell>
        <mxCell id="lxTzyP9Jyycn0VTd-L1F-86" value="&lt;span&gt;조회된 장비를 클릭하여 상세정보를 조회한다&lt;/span&gt;" style="rounded=0;whiteSpace=wrap;html=1;" parent="WIyWlLk6GJQsqaUBKTNV-1" vertex="1">
          <mxGeometry x="160" y="1300" width="120" height="60" as="geometry" />
        </mxCell>
        <mxCell id="Eu_mf2mGly2LNpTWScYB-49" value="" style="edgeStyle=orthogonalEdgeStyle;rounded=0;orthogonalLoop=1;jettySize=auto;html=1;" edge="1" parent="WIyWlLk6GJQsqaUBKTNV-1" source="lxTzyP9Jyycn0VTd-L1F-87" target="Eu_mf2mGly2LNpTWScYB-45">
          <mxGeometry relative="1" as="geometry" />
        </mxCell>
        <mxCell id="lxTzyP9Jyycn0VTd-L1F-87" value="&lt;span&gt;철거신고서 내용을 입력하고 신고등록한다&lt;/span&gt;" style="rounded=0;whiteSpace=wrap;html=1;" parent="WIyWlLk6GJQsqaUBKTNV-1" vertex="1">
          <mxGeometry x="160" y="1400" width="120" height="60" as="geometry" />
        </mxCell>
        <mxCell id="lxTzyP9Jyycn0VTd-L1F-88" value="철거신고내역을 수정하여 재등록한다" style="rounded=0;whiteSpace=wrap;html=1;" parent="WIyWlLk6GJQsqaUBKTNV-1" vertex="1">
          <mxGeometry x="370" y="1725" width="120" height="60" as="geometry" />
        </mxCell>
        <mxCell id="lxTzyP9Jyycn0VTd-L1F-90" value="&lt;span&gt;장비사진 첨부 및 장비대장을 입력한다&lt;/span&gt;" style="rounded=0;whiteSpace=wrap;html=1;" parent="WIyWlLk6GJQsqaUBKTNV-1" vertex="1">
          <mxGeometry x="360" y="300" width="120" height="60" as="geometry" />
        </mxCell>
        <mxCell id="lxTzyP9Jyycn0VTd-L1F-94" value="" style="edgeStyle=orthogonalEdgeStyle;rounded=0;orthogonalLoop=1;jettySize=auto;html=1;" parent="WIyWlLk6GJQsqaUBKTNV-1" source="lxTzyP9Jyycn0VTd-L1F-91" target="lxTzyP9Jyycn0VTd-L1F-23" edge="1">
          <mxGeometry relative="1" as="geometry" />
        </mxCell>
        <mxCell id="lxTzyP9Jyycn0VTd-L1F-91" value="&lt;span&gt;문서유통을 통해 공문을 발송한다&lt;/span&gt;" style="rounded=0;whiteSpace=wrap;html=1;" parent="WIyWlLk6GJQsqaUBKTNV-1" vertex="1">
          <mxGeometry x="160" y="1610" width="120" height="60" as="geometry" />
        </mxCell>
        <mxCell id="wN_w3vvfWrjO0FIOCe-q-0" value="" style="edgeStyle=orthogonalEdgeStyle;rounded=0;orthogonalLoop=1;jettySize=auto;html=1;" parent="WIyWlLk6GJQsqaUBKTNV-1" edge="1">
          <mxGeometry relative="1" as="geometry">
            <mxPoint x="220.5" y="2270" as="sourcePoint" />
            <mxPoint x="220.5" y="2310" as="targetPoint" />
          </mxGeometry>
        </mxCell>
        <mxCell id="wN_w3vvfWrjO0FIOCe-q-1" value="" style="edgeStyle=orthogonalEdgeStyle;rounded=0;orthogonalLoop=1;jettySize=auto;html=1;" parent="WIyWlLk6GJQsqaUBKTNV-1" edge="1">
          <mxGeometry relative="1" as="geometry">
            <mxPoint x="220.5" y="2370" as="sourcePoint" />
            <mxPoint x="220.5" y="2411" as="targetPoint" />
          </mxGeometry>
        </mxCell>
        <mxCell id="wN_w3vvfWrjO0FIOCe-q-2" value="설치변경신고 목록을 조회한다" style="rounded=0;whiteSpace=wrap;html=1;" parent="WIyWlLk6GJQsqaUBKTNV-1" vertex="1">
          <mxGeometry x="160.5" y="2210" width="120" height="60" as="geometry" />
        </mxCell>
        <mxCell id="wN_w3vvfWrjO0FIOCe-q-3" value="&lt;span&gt;조회된 장비를 클릭하여 상세정보를 조회한다&lt;/span&gt;" style="rounded=0;whiteSpace=wrap;html=1;" parent="WIyWlLk6GJQsqaUBKTNV-1" vertex="1">
          <mxGeometry x="160.5" y="2310" width="120" height="60" as="geometry" />
        </mxCell>
        <mxCell id="Eu_mf2mGly2LNpTWScYB-55" value="" style="edgeStyle=orthogonalEdgeStyle;rounded=0;orthogonalLoop=1;jettySize=auto;html=1;" edge="1" parent="WIyWlLk6GJQsqaUBKTNV-1" source="wN_w3vvfWrjO0FIOCe-q-4" target="Eu_mf2mGly2LNpTWScYB-52">
          <mxGeometry relative="1" as="geometry" />
        </mxCell>
        <mxCell id="wN_w3vvfWrjO0FIOCe-q-4" value="&lt;span&gt;설치변경신고서 내용을 입력하고 신고등록한다&lt;/span&gt;" style="rounded=0;whiteSpace=wrap;html=1;" parent="WIyWlLk6GJQsqaUBKTNV-1" vertex="1">
          <mxGeometry x="160.5" y="2410" width="120" height="60" as="geometry" />
        </mxCell>
        <mxCell id="wN_w3vvfWrjO0FIOCe-q-5" value="&#xa;&#xa;&lt;span style=&quot;color: rgb(0, 0, 0); font-family: helvetica; font-size: 12px; font-style: normal; font-weight: 400; letter-spacing: normal; text-align: center; text-indent: 0px; text-transform: none; word-spacing: 0px; background-color: rgb(248, 249, 250); display: inline; float: none;&quot;&gt;문서유통을 통해 공문을 발송한다&lt;/span&gt;&#xa;&#xa;" style="rounded=0;whiteSpace=wrap;html=1;" parent="WIyWlLk6GJQsqaUBKTNV-1" vertex="1">
          <mxGeometry x="160.5" y="2630" width="120" height="60" as="geometry" />
        </mxCell>
        <mxCell id="wN_w3vvfWrjO0FIOCe-q-7" value="설치변경신고내역을 수정하여 재등록한다" style="rounded=0;whiteSpace=wrap;html=1;" parent="WIyWlLk6GJQsqaUBKTNV-1" vertex="1">
          <mxGeometry x="354" y="2745" width="120" height="60" as="geometry" />
        </mxCell>
        <mxCell id="wN_w3vvfWrjO0FIOCe-q-8" value="&#xa;&#xa;&lt;span style=&quot;color: rgb(0, 0, 0); font-family: helvetica; font-size: 12px; font-style: normal; font-weight: 400; letter-spacing: normal; text-align: center; text-indent: 0px; text-transform: none; word-spacing: 0px; background-color: rgb(248, 249, 250); display: inline; float: none;&quot;&gt;문서유통을 통해 공문을 발송한다&lt;/span&gt;&#xa;&#xa;" style="rounded=0;whiteSpace=wrap;html=1;" parent="WIyWlLk6GJQsqaUBKTNV-1" vertex="1">
          <mxGeometry x="160" y="710" width="120" height="60" as="geometry" />
        </mxCell>
        <mxCell id="wN_w3vvfWrjO0FIOCe-q-22" value="&lt;font style=&quot;font-size: 23px&quot;&gt;제조/설치검사&lt;/font&gt;" style="text;html=1;align=center;verticalAlign=middle;resizable=0;points=[];autosize=1;strokeColor=none;" parent="WIyWlLk6GJQsqaUBKTNV-1" vertex="1">
          <mxGeometry x="155" y="3990" width="160" height="20" as="geometry" />
        </mxCell>
        <mxCell id="wN_w3vvfWrjO0FIOCe-q-28" value="" style="edgeStyle=orthogonalEdgeStyle;rounded=0;orthogonalLoop=1;jettySize=auto;html=1;" parent="WIyWlLk6GJQsqaUBKTNV-1" edge="1">
          <mxGeometry relative="1" as="geometry">
            <mxPoint x="220" y="3290" as="sourcePoint" />
            <mxPoint x="220" y="3331" as="targetPoint" />
          </mxGeometry>
        </mxCell>
        <mxCell id="wN_w3vvfWrjO0FIOCe-q-30" value="&lt;span&gt;조회된 장비를 클릭하여 상세정보를 조회한다&lt;/span&gt;" style="rounded=0;whiteSpace=wrap;html=1;" parent="WIyWlLk6GJQsqaUBKTNV-1" vertex="1">
          <mxGeometry x="160" y="3230" width="120" height="60" as="geometry" />
        </mxCell>
        <mxCell id="wN_w3vvfWrjO0FIOCe-q-37" value="" style="edgeStyle=orthogonalEdgeStyle;rounded=0;orthogonalLoop=1;jettySize=auto;html=1;" parent="WIyWlLk6GJQsqaUBKTNV-1" source="wN_w3vvfWrjO0FIOCe-q-31" target="wN_w3vvfWrjO0FIOCe-q-36" edge="1">
          <mxGeometry relative="1" as="geometry" />
        </mxCell>
        <mxCell id="wN_w3vvfWrjO0FIOCe-q-31" value="&lt;span&gt;검사대행기관을 선택한다&lt;br&gt;&lt;/span&gt;" style="rounded=0;whiteSpace=wrap;html=1;" parent="WIyWlLk6GJQsqaUBKTNV-1" vertex="1">
          <mxGeometry x="160" y="3331" width="120" height="60" as="geometry" />
        </mxCell>
        <mxCell id="wN_w3vvfWrjO0FIOCe-q-32" value="&lt;span&gt;문서유통을 통해 공문을 발송한다&lt;/span&gt;" style="rounded=0;whiteSpace=wrap;html=1;" parent="WIyWlLk6GJQsqaUBKTNV-1" vertex="1">
          <mxGeometry x="160.5" y="3640" width="120" height="60" as="geometry" />
        </mxCell>
        <mxCell id="wN_w3vvfWrjO0FIOCe-q-33" value="&#xa;&#xa;&lt;span style=&quot;color: rgb(0, 0, 0); font-family: helvetica; font-size: 12px; font-style: normal; font-weight: 400; letter-spacing: normal; text-align: center; text-indent: 0px; text-transform: none; word-spacing: 0px; background-color: rgb(248, 249, 250); display: inline; float: none;&quot;&gt;검사신청을&lt;/span&gt;&lt;br style=&quot;color: rgb(0, 0, 0); font-family: helvetica; font-size: 12px; font-style: normal; font-weight: 400; letter-spacing: normal; text-align: center; text-indent: 0px; text-transform: none; word-spacing: 0px; background-color: rgb(248, 249, 250);&quot;&gt;&lt;span style=&quot;color: rgb(0, 0, 0); font-family: helvetica; font-size: 12px; font-style: normal; font-weight: 400; letter-spacing: normal; text-align: center; text-indent: 0px; text-transform: none; word-spacing: 0px; background-color: rgb(248, 249, 250); display: inline; float: none;&quot;&gt;&amp;nbsp;재신청 한다&lt;/span&gt;&#xa;&#xa;" style="rounded=0;whiteSpace=wrap;html=1;" parent="WIyWlLk6GJQsqaUBKTNV-1" vertex="1">
          <mxGeometry x="340.5" y="3755" width="120" height="60" as="geometry" />
        </mxCell>
        <mxCell id="Eu_mf2mGly2LNpTWScYB-66" style="edgeStyle=orthogonalEdgeStyle;rounded=0;orthogonalLoop=1;jettySize=auto;html=1;entryX=0.5;entryY=0;entryDx=0;entryDy=0;" edge="1" parent="WIyWlLk6GJQsqaUBKTNV-1" source="wN_w3vvfWrjO0FIOCe-q-36" target="Eu_mf2mGly2LNpTWScYB-58">
          <mxGeometry relative="1" as="geometry" />
        </mxCell>
        <mxCell id="wN_w3vvfWrjO0FIOCe-q-36" value="검사신청내용을 입력하고 검사신청한다" style="rounded=0;whiteSpace=wrap;html=1;" parent="WIyWlLk6GJQsqaUBKTNV-1" vertex="1">
          <mxGeometry x="160" y="3431" width="120" height="59" as="geometry" />
        </mxCell>
        <mxCell id="Eu_mf2mGly2LNpTWScYB-0" value="" style="rounded=0;html=1;jettySize=auto;orthogonalLoop=1;fontSize=11;endArrow=block;endFill=0;endSize=8;strokeWidth=1;shadow=0;labelBackgroundColor=none;edgeStyle=orthogonalEdgeStyle;" edge="1" parent="WIyWlLk6GJQsqaUBKTNV-1" source="Eu_mf2mGly2LNpTWScYB-1" target="Eu_mf2mGly2LNpTWScYB-10">
          <mxGeometry relative="1" as="geometry">
            <mxPoint x="220" y="4130" as="targetPoint" />
          </mxGeometry>
        </mxCell>
        <mxCell id="Eu_mf2mGly2LNpTWScYB-1" value="제조/설치검사 메뉴로 이동한다" style="rounded=1;whiteSpace=wrap;html=1;fontSize=12;glass=0;strokeWidth=1;shadow=0;" vertex="1" parent="WIyWlLk6GJQsqaUBKTNV-1">
          <mxGeometry x="160" y="4040" width="120" height="60" as="geometry" />
        </mxCell>
        <mxCell id="Eu_mf2mGly2LNpTWScYB-2" value="" style="edgeStyle=orthogonalEdgeStyle;rounded=0;orthogonalLoop=1;jettySize=auto;html=1;" edge="1" parent="WIyWlLk6GJQsqaUBKTNV-1">
          <mxGeometry relative="1" as="geometry">
            <mxPoint x="220" y="4200" as="sourcePoint" />
            <mxPoint x="220" y="4240" as="targetPoint" />
          </mxGeometry>
        </mxCell>
        <mxCell id="Eu_mf2mGly2LNpTWScYB-3" value="" style="edgeStyle=orthogonalEdgeStyle;rounded=0;orthogonalLoop=1;jettySize=auto;html=1;entryX=0.5;entryY=0;entryDx=0;entryDy=0;" edge="1" parent="WIyWlLk6GJQsqaUBKTNV-1" target="Eu_mf2mGly2LNpTWScYB-6">
          <mxGeometry relative="1" as="geometry">
            <mxPoint x="215" y="4926" as="targetPoint" />
            <mxPoint x="215" y="4611" as="sourcePoint" />
            <Array as="points">
              <mxPoint x="220" y="4611" />
            </Array>
          </mxGeometry>
        </mxCell>
        <mxCell id="Eu_mf2mGly2LNpTWScYB-4" value="" style="edgeStyle=orthogonalEdgeStyle;rounded=0;orthogonalLoop=1;jettySize=auto;html=1;" edge="1" parent="WIyWlLk6GJQsqaUBKTNV-1" source="Eu_mf2mGly2LNpTWScYB-6">
          <mxGeometry relative="1" as="geometry">
            <mxPoint x="220" y="4781" as="targetPoint" />
          </mxGeometry>
        </mxCell>
        <mxCell id="Eu_mf2mGly2LNpTWScYB-5" value="" style="edgeStyle=orthogonalEdgeStyle;rounded=0;orthogonalLoop=1;jettySize=auto;html=1;entryX=0;entryY=0.5;entryDx=0;entryDy=0;" edge="1" parent="WIyWlLk6GJQsqaUBKTNV-1" source="Eu_mf2mGly2LNpTWScYB-6" target="Eu_mf2mGly2LNpTWScYB-17">
          <mxGeometry relative="1" as="geometry">
            <mxPoint x="345" y="4696" as="targetPoint" />
          </mxGeometry>
        </mxCell>
        <mxCell id="Eu_mf2mGly2LNpTWScYB-6" value="검사신청 내역을 &lt;br&gt;승인한다" style="rhombus;whiteSpace=wrap;html=1;" vertex="1" parent="WIyWlLk6GJQsqaUBKTNV-1">
          <mxGeometry x="170" y="4651" width="100" height="90" as="geometry" />
        </mxCell>
        <mxCell id="Eu_mf2mGly2LNpTWScYB-7" value="No" style="text;html=1;align=center;verticalAlign=middle;resizable=0;points=[];autosize=1;" vertex="1" parent="WIyWlLk6GJQsqaUBKTNV-1">
          <mxGeometry x="300" y="4701" width="30" height="20" as="geometry" />
        </mxCell>
        <mxCell id="Eu_mf2mGly2LNpTWScYB-8" value="Yes" style="text;html=1;align=center;verticalAlign=middle;resizable=0;points=[];autosize=1;" vertex="1" parent="WIyWlLk6GJQsqaUBKTNV-1">
          <mxGeometry x="220" y="4751" width="40" height="20" as="geometry" />
        </mxCell>
        <mxCell id="Eu_mf2mGly2LNpTWScYB-9" value="검사신청이&lt;br&gt;&amp;nbsp;완료된다" style="rounded=1;whiteSpace=wrap;html=1;" vertex="1" parent="WIyWlLk6GJQsqaUBKTNV-1">
          <mxGeometry x="160" y="4781" width="120" height="60" as="geometry" />
        </mxCell>
        <mxCell id="Eu_mf2mGly2LNpTWScYB-10" value="제조/설치검사 목록을 조회한다" style="rounded=0;whiteSpace=wrap;html=1;" vertex="1" parent="WIyWlLk6GJQsqaUBKTNV-1">
          <mxGeometry x="160" y="4140" width="120" height="60" as="geometry" />
        </mxCell>
        <mxCell id="Eu_mf2mGly2LNpTWScYB-12" value="" style="edgeStyle=orthogonalEdgeStyle;rounded=0;orthogonalLoop=1;jettySize=auto;html=1;" edge="1" parent="WIyWlLk6GJQsqaUBKTNV-1">
          <mxGeometry relative="1" as="geometry">
            <mxPoint x="220" y="4300" as="sourcePoint" />
            <mxPoint x="220" y="4341" as="targetPoint" />
          </mxGeometry>
        </mxCell>
        <mxCell id="Eu_mf2mGly2LNpTWScYB-13" value="&lt;span&gt;조회된 장비를 클릭하여 상세정보를 조회한다&lt;/span&gt;" style="rounded=0;whiteSpace=wrap;html=1;" vertex="1" parent="WIyWlLk6GJQsqaUBKTNV-1">
          <mxGeometry x="160" y="4240" width="120" height="60" as="geometry" />
        </mxCell>
        <mxCell id="Eu_mf2mGly2LNpTWScYB-14" value="" style="edgeStyle=orthogonalEdgeStyle;rounded=0;orthogonalLoop=1;jettySize=auto;html=1;" edge="1" parent="WIyWlLk6GJQsqaUBKTNV-1" source="Eu_mf2mGly2LNpTWScYB-15" target="Eu_mf2mGly2LNpTWScYB-19">
          <mxGeometry relative="1" as="geometry" />
        </mxCell>
        <mxCell id="Eu_mf2mGly2LNpTWScYB-15" value="&lt;span&gt;검사대행기관을 선택한다&lt;br&gt;&lt;/span&gt;" style="rounded=0;whiteSpace=wrap;html=1;" vertex="1" parent="WIyWlLk6GJQsqaUBKTNV-1">
          <mxGeometry x="160" y="4341" width="120" height="60" as="geometry" />
        </mxCell>
        <mxCell id="Eu_mf2mGly2LNpTWScYB-16" value="&lt;span&gt;문서유통을 통해 공문을 발송한다&lt;/span&gt;" style="rounded=0;whiteSpace=wrap;html=1;" vertex="1" parent="WIyWlLk6GJQsqaUBKTNV-1">
          <mxGeometry x="160" y="4551" width="120" height="60" as="geometry" />
        </mxCell>
        <mxCell id="Eu_mf2mGly2LNpTWScYB-17" value="&#xa;&#xa;&lt;span style=&quot;color: rgb(0, 0, 0); font-family: helvetica; font-size: 12px; font-style: normal; font-weight: 400; letter-spacing: normal; text-align: center; text-indent: 0px; text-transform: none; word-spacing: 0px; background-color: rgb(248, 249, 250); display: inline; float: none;&quot;&gt;검사신청을&lt;/span&gt;&lt;br style=&quot;color: rgb(0, 0, 0); font-family: helvetica; font-size: 12px; font-style: normal; font-weight: 400; letter-spacing: normal; text-align: center; text-indent: 0px; text-transform: none; word-spacing: 0px; background-color: rgb(248, 249, 250);&quot;&gt;&lt;span style=&quot;color: rgb(0, 0, 0); font-family: helvetica; font-size: 12px; font-style: normal; font-weight: 400; letter-spacing: normal; text-align: center; text-indent: 0px; text-transform: none; word-spacing: 0px; background-color: rgb(248, 249, 250); display: inline; float: none;&quot;&gt;&amp;nbsp;재신청 한다&lt;/span&gt;&#xa;&#xa;" style="rounded=0;whiteSpace=wrap;html=1;" vertex="1" parent="WIyWlLk6GJQsqaUBKTNV-1">
          <mxGeometry x="340" y="4666" width="120" height="60" as="geometry" />
        </mxCell>
        <mxCell id="Eu_mf2mGly2LNpTWScYB-18" value="" style="edgeStyle=orthogonalEdgeStyle;rounded=0;orthogonalLoop=1;jettySize=auto;html=1;" edge="1" parent="WIyWlLk6GJQsqaUBKTNV-1" source="Eu_mf2mGly2LNpTWScYB-19" target="Eu_mf2mGly2LNpTWScYB-16">
          <mxGeometry relative="1" as="geometry" />
        </mxCell>
        <mxCell id="Eu_mf2mGly2LNpTWScYB-19" value="검사신청내용을 입력하고 검사신청한다" style="rounded=0;whiteSpace=wrap;html=1;" vertex="1" parent="WIyWlLk6GJQsqaUBKTNV-1">
          <mxGeometry x="160" y="4441" width="120" height="60" as="geometry" />
        </mxCell>
        <mxCell id="Eu_mf2mGly2LNpTWScYB-20" value="&lt;font style=&quot;font-size: 23px&quot;&gt;검사연기&lt;/font&gt;" style="text;html=1;align=center;verticalAlign=middle;resizable=0;points=[];autosize=1;strokeColor=none;" vertex="1" parent="WIyWlLk6GJQsqaUBKTNV-1">
          <mxGeometry x="157.5" y="5160" width="110" height="20" as="geometry" />
        </mxCell>
        <mxCell id="Eu_mf2mGly2LNpTWScYB-21" value="" style="rounded=0;html=1;jettySize=auto;orthogonalLoop=1;fontSize=11;endArrow=block;endFill=0;endSize=8;strokeWidth=1;shadow=0;labelBackgroundColor=none;edgeStyle=orthogonalEdgeStyle;" edge="1" parent="WIyWlLk6GJQsqaUBKTNV-1" source="Eu_mf2mGly2LNpTWScYB-22" target="Eu_mf2mGly2LNpTWScYB-31">
          <mxGeometry relative="1" as="geometry">
            <mxPoint x="222.5" y="5300" as="targetPoint" />
          </mxGeometry>
        </mxCell>
        <mxCell id="Eu_mf2mGly2LNpTWScYB-22" value="검사연기 메뉴로 이동한다" style="rounded=1;whiteSpace=wrap;html=1;fontSize=12;glass=0;strokeWidth=1;shadow=0;" vertex="1" parent="WIyWlLk6GJQsqaUBKTNV-1">
          <mxGeometry x="162.5" y="5210" width="120" height="60" as="geometry" />
        </mxCell>
        <mxCell id="Eu_mf2mGly2LNpTWScYB-23" value="" style="edgeStyle=orthogonalEdgeStyle;rounded=0;orthogonalLoop=1;jettySize=auto;html=1;" edge="1" parent="WIyWlLk6GJQsqaUBKTNV-1">
          <mxGeometry relative="1" as="geometry">
            <mxPoint x="222.5" y="5370" as="sourcePoint" />
            <mxPoint x="222.5" y="5410" as="targetPoint" />
          </mxGeometry>
        </mxCell>
        <mxCell id="Eu_mf2mGly2LNpTWScYB-24" value="" style="edgeStyle=orthogonalEdgeStyle;rounded=0;orthogonalLoop=1;jettySize=auto;html=1;entryX=0.5;entryY=0;entryDx=0;entryDy=0;" edge="1" parent="WIyWlLk6GJQsqaUBKTNV-1" target="Eu_mf2mGly2LNpTWScYB-27">
          <mxGeometry relative="1" as="geometry">
            <mxPoint x="217.5" y="6096" as="targetPoint" />
            <mxPoint x="217.5" y="5781" as="sourcePoint" />
            <Array as="points">
              <mxPoint x="222.5" y="5781" />
            </Array>
          </mxGeometry>
        </mxCell>
        <mxCell id="Eu_mf2mGly2LNpTWScYB-25" value="" style="edgeStyle=orthogonalEdgeStyle;rounded=0;orthogonalLoop=1;jettySize=auto;html=1;" edge="1" parent="WIyWlLk6GJQsqaUBKTNV-1" source="Eu_mf2mGly2LNpTWScYB-27">
          <mxGeometry relative="1" as="geometry">
            <mxPoint x="222.5" y="5951" as="targetPoint" />
          </mxGeometry>
        </mxCell>
        <mxCell id="Eu_mf2mGly2LNpTWScYB-26" value="" style="edgeStyle=orthogonalEdgeStyle;rounded=0;orthogonalLoop=1;jettySize=auto;html=1;entryX=0;entryY=0.5;entryDx=0;entryDy=0;" edge="1" parent="WIyWlLk6GJQsqaUBKTNV-1" source="Eu_mf2mGly2LNpTWScYB-27" target="Eu_mf2mGly2LNpTWScYB-37">
          <mxGeometry relative="1" as="geometry">
            <mxPoint x="347.5" y="5866" as="targetPoint" />
          </mxGeometry>
        </mxCell>
        <mxCell id="Eu_mf2mGly2LNpTWScYB-27" value="검사연기신청내역을&amp;nbsp;승인한다" style="rhombus;whiteSpace=wrap;html=1;" vertex="1" parent="WIyWlLk6GJQsqaUBKTNV-1">
          <mxGeometry x="172.5" y="5821" width="100" height="90" as="geometry" />
        </mxCell>
        <mxCell id="Eu_mf2mGly2LNpTWScYB-28" value="No" style="text;html=1;align=center;verticalAlign=middle;resizable=0;points=[];autosize=1;" vertex="1" parent="WIyWlLk6GJQsqaUBKTNV-1">
          <mxGeometry x="302.5" y="5871" width="30" height="20" as="geometry" />
        </mxCell>
        <mxCell id="Eu_mf2mGly2LNpTWScYB-29" value="Yes" style="text;html=1;align=center;verticalAlign=middle;resizable=0;points=[];autosize=1;" vertex="1" parent="WIyWlLk6GJQsqaUBKTNV-1">
          <mxGeometry x="222.5" y="5921" width="40" height="20" as="geometry" />
        </mxCell>
        <mxCell id="Eu_mf2mGly2LNpTWScYB-30" value="검사연기신청이&lt;br&gt;&amp;nbsp;완료된다" style="rounded=1;whiteSpace=wrap;html=1;" vertex="1" parent="WIyWlLk6GJQsqaUBKTNV-1">
          <mxGeometry x="162.5" y="5951" width="120" height="60" as="geometry" />
        </mxCell>
        <mxCell id="Eu_mf2mGly2LNpTWScYB-31" value="검사연기 목록을 조회한다" style="rounded=0;whiteSpace=wrap;html=1;" vertex="1" parent="WIyWlLk6GJQsqaUBKTNV-1">
          <mxGeometry x="162.5" y="5310" width="120" height="60" as="geometry" />
        </mxCell>
        <mxCell id="Eu_mf2mGly2LNpTWScYB-32" value="" style="edgeStyle=orthogonalEdgeStyle;rounded=0;orthogonalLoop=1;jettySize=auto;html=1;" edge="1" parent="WIyWlLk6GJQsqaUBKTNV-1">
          <mxGeometry relative="1" as="geometry">
            <mxPoint x="222.5" y="5470" as="sourcePoint" />
            <mxPoint x="222.5" y="5511" as="targetPoint" />
          </mxGeometry>
        </mxCell>
        <mxCell id="Eu_mf2mGly2LNpTWScYB-33" value="&lt;span&gt;조회된 장비를 클릭하여 상세정보를 조회한다&lt;/span&gt;" style="rounded=0;whiteSpace=wrap;html=1;" vertex="1" parent="WIyWlLk6GJQsqaUBKTNV-1">
          <mxGeometry x="162.5" y="5410" width="120" height="60" as="geometry" />
        </mxCell>
        <mxCell id="Eu_mf2mGly2LNpTWScYB-34" value="" style="edgeStyle=orthogonalEdgeStyle;rounded=0;orthogonalLoop=1;jettySize=auto;html=1;" edge="1" parent="WIyWlLk6GJQsqaUBKTNV-1" source="Eu_mf2mGly2LNpTWScYB-35" target="Eu_mf2mGly2LNpTWScYB-39">
          <mxGeometry relative="1" as="geometry" />
        </mxCell>
        <mxCell id="Eu_mf2mGly2LNpTWScYB-35" value="&lt;span&gt;검사대행기관을 선택한다&lt;br&gt;&lt;/span&gt;" style="rounded=0;whiteSpace=wrap;html=1;" vertex="1" parent="WIyWlLk6GJQsqaUBKTNV-1">
          <mxGeometry x="162.5" y="5511" width="120" height="60" as="geometry" />
        </mxCell>
        <mxCell id="Eu_mf2mGly2LNpTWScYB-36" value="&lt;span&gt;문서유통을 통해 공문을 발송한다&lt;/span&gt;" style="rounded=0;whiteSpace=wrap;html=1;" vertex="1" parent="WIyWlLk6GJQsqaUBKTNV-1">
          <mxGeometry x="162.5" y="5721" width="120" height="60" as="geometry" />
        </mxCell>
        <mxCell id="Eu_mf2mGly2LNpTWScYB-37" value="&lt;span style=&quot;color: rgb(0 , 0 , 0) ; font-family: &amp;#34;helvetica&amp;#34; ; font-size: 12px ; font-style: normal ; font-weight: 400 ; letter-spacing: normal ; text-align: center ; text-indent: 0px ; text-transform: none ; word-spacing: 0px ; background-color: rgb(248 , 249 , 250) ; display: inline ; float: none&quot;&gt;검사연기신청을&lt;/span&gt;&lt;br style=&quot;color: rgb(0 , 0 , 0) ; font-family: &amp;#34;helvetica&amp;#34; ; font-size: 12px ; font-style: normal ; font-weight: 400 ; letter-spacing: normal ; text-align: center ; text-indent: 0px ; text-transform: none ; word-spacing: 0px ; background-color: rgb(248 , 249 , 250)&quot;&gt;&lt;span style=&quot;color: rgb(0 , 0 , 0) ; font-family: &amp;#34;helvetica&amp;#34; ; font-size: 12px ; font-style: normal ; font-weight: 400 ; letter-spacing: normal ; text-align: center ; text-indent: 0px ; text-transform: none ; word-spacing: 0px ; background-color: rgb(248 , 249 , 250) ; display: inline ; float: none&quot;&gt;&amp;nbsp;재신청 한다&lt;/span&gt;" style="rounded=0;whiteSpace=wrap;html=1;" vertex="1" parent="WIyWlLk6GJQsqaUBKTNV-1">
          <mxGeometry x="342.5" y="5836" width="120" height="60" as="geometry" />
        </mxCell>
        <mxCell id="Eu_mf2mGly2LNpTWScYB-38" value="" style="edgeStyle=orthogonalEdgeStyle;rounded=0;orthogonalLoop=1;jettySize=auto;html=1;" edge="1" parent="WIyWlLk6GJQsqaUBKTNV-1" source="Eu_mf2mGly2LNpTWScYB-39" target="Eu_mf2mGly2LNpTWScYB-36">
          <mxGeometry relative="1" as="geometry" />
        </mxCell>
        <mxCell id="Eu_mf2mGly2LNpTWScYB-39" value="검사연기신청내용을 입력하고 검사연기신청한다" style="rounded=0;whiteSpace=wrap;html=1;" vertex="1" parent="WIyWlLk6GJQsqaUBKTNV-1">
          <mxGeometry x="162.5" y="5611" width="120" height="60" as="geometry" />
        </mxCell>
        <mxCell id="Eu_mf2mGly2LNpTWScYB-41" style="edgeStyle=orthogonalEdgeStyle;rounded=0;orthogonalLoop=1;jettySize=auto;html=1;entryX=0;entryY=0.5;entryDx=0;entryDy=0;" edge="1" parent="WIyWlLk6GJQsqaUBKTNV-1" source="Eu_mf2mGly2LNpTWScYB-40" target="WIyWlLk6GJQsqaUBKTNV-6">
          <mxGeometry relative="1" as="geometry">
            <mxPoint x="60" y="310" as="targetPoint" />
            <Array as="points">
              <mxPoint x="80" y="630" />
              <mxPoint x="80" y="330" />
            </Array>
          </mxGeometry>
        </mxCell>
        <mxCell id="Eu_mf2mGly2LNpTWScYB-42" value="" style="edgeStyle=orthogonalEdgeStyle;rounded=0;orthogonalLoop=1;jettySize=auto;html=1;" edge="1" parent="WIyWlLk6GJQsqaUBKTNV-1" source="Eu_mf2mGly2LNpTWScYB-40" target="wN_w3vvfWrjO0FIOCe-q-8">
          <mxGeometry relative="1" as="geometry" />
        </mxCell>
        <mxCell id="Eu_mf2mGly2LNpTWScYB-40" value="추가등록을 선택한다" style="rhombus;whiteSpace=wrap;html=1;" vertex="1" parent="WIyWlLk6GJQsqaUBKTNV-1">
          <mxGeometry x="170" y="590" width="100" height="80" as="geometry" />
        </mxCell>
        <mxCell id="Eu_mf2mGly2LNpTWScYB-43" value="Yes" style="text;html=1;align=center;verticalAlign=middle;resizable=0;points=[];autosize=1;strokeColor=none;" vertex="1" parent="WIyWlLk6GJQsqaUBKTNV-1">
          <mxGeometry x="120" y="610" width="40" height="20" as="geometry" />
        </mxCell>
        <mxCell id="Eu_mf2mGly2LNpTWScYB-44" value="No" style="text;html=1;align=center;verticalAlign=middle;resizable=0;points=[];autosize=1;strokeColor=none;" vertex="1" parent="WIyWlLk6GJQsqaUBKTNV-1">
          <mxGeometry x="225" y="675" width="30" height="20" as="geometry" />
        </mxCell>
        <mxCell id="Eu_mf2mGly2LNpTWScYB-47" style="edgeStyle=orthogonalEdgeStyle;rounded=0;orthogonalLoop=1;jettySize=auto;html=1;exitX=0;exitY=0.5;exitDx=0;exitDy=0;entryX=0;entryY=0.5;entryDx=0;entryDy=0;" edge="1" parent="WIyWlLk6GJQsqaUBKTNV-1" source="Eu_mf2mGly2LNpTWScYB-45" target="lxTzyP9Jyycn0VTd-L1F-33">
          <mxGeometry relative="1" as="geometry">
            <Array as="points">
              <mxPoint x="80" y="1530" />
              <mxPoint x="80" y="1230" />
            </Array>
          </mxGeometry>
        </mxCell>
        <mxCell id="Eu_mf2mGly2LNpTWScYB-50" value="" style="edgeStyle=orthogonalEdgeStyle;rounded=0;orthogonalLoop=1;jettySize=auto;html=1;" edge="1" parent="WIyWlLk6GJQsqaUBKTNV-1" source="Eu_mf2mGly2LNpTWScYB-45" target="lxTzyP9Jyycn0VTd-L1F-91">
          <mxGeometry relative="1" as="geometry" />
        </mxCell>
        <mxCell id="Eu_mf2mGly2LNpTWScYB-45" value="추가등록을 선택한다" style="rhombus;whiteSpace=wrap;html=1;" vertex="1" parent="WIyWlLk6GJQsqaUBKTNV-1">
          <mxGeometry x="170" y="1490" width="100" height="80" as="geometry" />
        </mxCell>
        <mxCell id="Eu_mf2mGly2LNpTWScYB-48" value="Yes" style="text;html=1;align=center;verticalAlign=middle;resizable=0;points=[];autosize=1;strokeColor=none;" vertex="1" parent="WIyWlLk6GJQsqaUBKTNV-1">
          <mxGeometry x="100" y="1510" width="40" height="20" as="geometry" />
        </mxCell>
        <mxCell id="Eu_mf2mGly2LNpTWScYB-51" value="No" style="text;html=1;align=center;verticalAlign=middle;resizable=0;points=[];autosize=1;strokeColor=none;" vertex="1" parent="WIyWlLk6GJQsqaUBKTNV-1">
          <mxGeometry x="220" y="1580" width="30" height="20" as="geometry" />
        </mxCell>
        <mxCell id="Eu_mf2mGly2LNpTWScYB-53" style="edgeStyle=orthogonalEdgeStyle;rounded=0;orthogonalLoop=1;jettySize=auto;html=1;entryX=0;entryY=0.5;entryDx=0;entryDy=0;" edge="1" parent="WIyWlLk6GJQsqaUBKTNV-1" source="Eu_mf2mGly2LNpTWScYB-52" target="wN_w3vvfWrjO0FIOCe-q-2">
          <mxGeometry relative="1" as="geometry">
            <Array as="points">
              <mxPoint x="80" y="2550" />
              <mxPoint x="80" y="2240" />
            </Array>
          </mxGeometry>
        </mxCell>
        <mxCell id="Eu_mf2mGly2LNpTWScYB-56" value="" style="edgeStyle=orthogonalEdgeStyle;rounded=0;orthogonalLoop=1;jettySize=auto;html=1;" edge="1" parent="WIyWlLk6GJQsqaUBKTNV-1" source="Eu_mf2mGly2LNpTWScYB-52" target="wN_w3vvfWrjO0FIOCe-q-5">
          <mxGeometry relative="1" as="geometry" />
        </mxCell>
        <mxCell id="Eu_mf2mGly2LNpTWScYB-52" value="추가등록을 선택한다" style="rhombus;whiteSpace=wrap;html=1;" vertex="1" parent="WIyWlLk6GJQsqaUBKTNV-1">
          <mxGeometry x="170" y="2510" width="100" height="80" as="geometry" />
        </mxCell>
        <mxCell id="Eu_mf2mGly2LNpTWScYB-54" value="Yes" style="text;html=1;align=center;verticalAlign=middle;resizable=0;points=[];autosize=1;strokeColor=none;" vertex="1" parent="WIyWlLk6GJQsqaUBKTNV-1">
          <mxGeometry x="110" y="2530" width="40" height="20" as="geometry" />
        </mxCell>
        <mxCell id="Eu_mf2mGly2LNpTWScYB-57" value="No" style="text;html=1;align=center;verticalAlign=middle;resizable=0;points=[];autosize=1;strokeColor=none;" vertex="1" parent="WIyWlLk6GJQsqaUBKTNV-1">
          <mxGeometry x="222.5" y="2600" width="30" height="20" as="geometry" />
        </mxCell>
        <mxCell id="Eu_mf2mGly2LNpTWScYB-60" style="edgeStyle=orthogonalEdgeStyle;rounded=0;orthogonalLoop=1;jettySize=auto;html=1;exitX=0;exitY=0.5;exitDx=0;exitDy=0;entryX=0;entryY=0.5;entryDx=0;entryDy=0;" edge="1" parent="WIyWlLk6GJQsqaUBKTNV-1" source="Eu_mf2mGly2LNpTWScYB-58" target="lxTzyP9Jyycn0VTd-L1F-74">
          <mxGeometry relative="1" as="geometry">
            <Array as="points">
              <mxPoint x="80" y="3560" />
              <mxPoint x="80" y="3160" />
            </Array>
          </mxGeometry>
        </mxCell>
        <mxCell id="Eu_mf2mGly2LNpTWScYB-62" value="" style="edgeStyle=orthogonalEdgeStyle;rounded=0;orthogonalLoop=1;jettySize=auto;html=1;" edge="1" parent="WIyWlLk6GJQsqaUBKTNV-1" source="Eu_mf2mGly2LNpTWScYB-58" target="wN_w3vvfWrjO0FIOCe-q-32">
          <mxGeometry relative="1" as="geometry" />
        </mxCell>
        <mxCell id="Eu_mf2mGly2LNpTWScYB-58" value="추가등록을 선택한다" style="rhombus;whiteSpace=wrap;html=1;" vertex="1" parent="WIyWlLk6GJQsqaUBKTNV-1">
          <mxGeometry x="170" y="3520" width="100" height="80" as="geometry" />
        </mxCell>
        <mxCell id="Eu_mf2mGly2LNpTWScYB-61" value="Yes" style="text;html=1;align=center;verticalAlign=middle;resizable=0;points=[];autosize=1;strokeColor=none;" vertex="1" parent="WIyWlLk6GJQsqaUBKTNV-1">
          <mxGeometry x="110" y="3540" width="40" height="20" as="geometry" />
        </mxCell>
        <mxCell id="Eu_mf2mGly2LNpTWScYB-63" value="No" style="text;html=1;align=center;verticalAlign=middle;resizable=0;points=[];autosize=1;strokeColor=none;" vertex="1" parent="WIyWlLk6GJQsqaUBKTNV-1">
          <mxGeometry x="225" y="3610" width="30" height="20" as="geometry" />
        </mxCell>
        <mxCell id="Eu_mf2mGly2LNpTWScYB-77" value="" style="edgeStyle=orthogonalEdgeStyle;rounded=0;orthogonalLoop=1;jettySize=auto;html=1;" edge="1" parent="WIyWlLk6GJQsqaUBKTNV-1" source="Eu_mf2mGly2LNpTWScYB-70" target="Eu_mf2mGly2LNpTWScYB-76">
          <mxGeometry relative="1" as="geometry" />
        </mxCell>
        <mxCell id="Eu_mf2mGly2LNpTWScYB-70" value="신고현황 메뉴로 이동한다" style="rounded=0;whiteSpace=wrap;html=1;" vertex="1" parent="WIyWlLk6GJQsqaUBKTNV-1">
          <mxGeometry x="540" y="190" width="120" height="60" as="geometry" />
        </mxCell>
        <mxCell id="Eu_mf2mGly2LNpTWScYB-72" value="" style="edgeStyle=orthogonalEdgeStyle;rounded=0;orthogonalLoop=1;jettySize=auto;html=1;" edge="1" parent="WIyWlLk6GJQsqaUBKTNV-1" source="Eu_mf2mGly2LNpTWScYB-71" target="WIyWlLk6GJQsqaUBKTNV-6">
          <mxGeometry relative="1" as="geometry" />
        </mxCell>
        <mxCell id="Eu_mf2mGly2LNpTWScYB-71" value="설치신고 메뉴로 이동한다" style="rounded=0;whiteSpace=wrap;html=1;" vertex="1" parent="WIyWlLk6GJQsqaUBKTNV-1">
          <mxGeometry x="160.5" y="190" width="120" height="60" as="geometry" />
        </mxCell>
        <mxCell id="Eu_mf2mGly2LNpTWScYB-73" value="지방청담당자" style="text;html=1;align=center;verticalAlign=middle;resizable=0;points=[];autosize=1;strokeColor=none;" vertex="1" parent="WIyWlLk6GJQsqaUBKTNV-1">
          <mxGeometry x="530" y="70" width="90" height="20" as="geometry" />
        </mxCell>
        <mxCell id="Eu_mf2mGly2LNpTWScYB-74" value="운영사" style="text;html=1;align=center;verticalAlign=middle;resizable=0;points=[];autosize=1;strokeColor=none;" vertex="1" parent="WIyWlLk6GJQsqaUBKTNV-1">
          <mxGeometry x="235" y="70" width="50" height="20" as="geometry" />
        </mxCell>
        <mxCell id="Eu_mf2mGly2LNpTWScYB-78" value="" style="edgeStyle=orthogonalEdgeStyle;rounded=0;orthogonalLoop=1;jettySize=auto;html=1;" edge="1" parent="WIyWlLk6GJQsqaUBKTNV-1" source="Eu_mf2mGly2LNpTWScYB-76" target="Ld-m0rTdNNkQz6go5yyE-28">
          <mxGeometry relative="1" as="geometry" />
        </mxCell>
        <mxCell id="Eu_mf2mGly2LNpTWScYB-76" value="신고목록 선택하여 상세정보를 조회한다." style="rounded=0;whiteSpace=wrap;html=1;" vertex="1" parent="WIyWlLk6GJQsqaUBKTNV-1">
          <mxGeometry x="540" y="300" width="120" height="60" as="geometry" />
        </mxCell>
        <mxCell id="Eu_mf2mGly2LNpTWScYB-83" value="운영사가 설치신고를 재신고한다." style="rounded=0;whiteSpace=wrap;html=1;" vertex="1" parent="WIyWlLk6GJQsqaUBKTNV-1">
          <mxGeometry x="690" y="405" width="120" height="60" as="geometry" />
        </mxCell>
      </root>
    </mxGraphModel>
  </diagram>
</mxfile>
